<svg width="50" height="50" viewBox="0 0 50 50" fill="none" xmlns="http://www.w3.org/2000/svg">
<path d="M15.7063 50C34.575 50 44.8969 30.7587 44.8969 14.1019C44.8969 13.5635 44.8969 13.0174 44.8781 12.4789C46.8877 10.6886 48.6221 8.47203 50 5.93312C48.1229 6.95172 46.1336 7.62305 44.0969 7.92532C46.2423 6.34709 47.8491 3.86388 48.6187 0.937231C46.6031 2.40686 44.3969 3.43853 42.0969 3.98707C40.5506 1.96034 38.5044 0.617701 36.2753 0.167109C34.0461 -0.283483 31.7585 0.183123 29.7667 1.49465C27.7749 2.80618 26.19 4.88944 25.2577 7.42173C24.3253 9.95403 24.0974 12.794 24.6094 15.5018C20.5304 15.2501 16.5401 13.946 12.897 11.6741C9.25397 9.40223 6.03964 6.21327 3.4625 2.31408C2.15419 5.09502 1.75492 8.38453 2.34577 11.5146C2.93662 14.6447 4.4733 17.3807 6.64375 19.167C5.01731 19.099 3.42663 18.5615 2 17.5979V17.7709C2.0028 20.6842 2.82284 23.5069 4.32148 25.7619C5.82013 28.0169 7.90546 29.566 10.225 30.1472C9.34457 30.4457 8.43509 30.5945 7.52188 30.5895C6.87807 30.5919 6.23556 30.5185 5.60313 30.3703C6.25871 32.8781 7.53523 35.0707 9.2539 36.641C10.9726 38.2113 13.0473 39.0808 15.1875 39.1275C11.5517 42.6419 7.06063 44.548 2.4375 44.5388C1.62288 44.543 0.808822 44.4852 0 44.3657C4.69223 48.0473 10.1416 50.0021 15.7063 50Z" fill="black"/>
</svg>
